PathFileType	4	(X/Y/Z)	Walk8.trc
DataRate	CameraRate	NumFrames	NumMarkers	Units	OrigDataRate	OrigDataStartFrame	OrigNumFrames
200.000000	200.000000	9	59	mm	200.000000	703	1039
Frame#	Times		RFA1		LFHD		RFHD		RCAR		RWRR		RACR1		LMT1		RUA1		LTH3		LTB1		LLFC		LACR1		LTB2		LToe		LASI		LTB3		LElbow		LUA1		RASI		RLFC		CLAV		STRN		RTH3		LWRU		LFA1		RBack		RMT5		RMT1		LCAR		RCAL		LTH4		RTB2		RToe		RLMAL		LTH1		LBHD		LPSI		RPSI		RTH1		RTB1		RTH2		RTB4		RTB3		LTB4		C7		RElbowM		RBHD		LMT5		RElbow		RMMAL		LWRR		RTH4		LTH2		LLMAL		LMMAL		T10		RWRU		LCAL		LElbowM
			X1	Y1	Z1	X2	Y2	Z2	X3	Y3	Z3	X4	Y4	Z4	X5	Y5	Z5	X6	Y6	Z6	X7	Y7	Z7	X8	Y8	Z8	X9	Y9	Z9	X10	Y10	Z10	X11	Y11	Z11	X12	Y12	Z12	X13	Y13	Z13	X14	Y14	Z14	X15	Y15	Z15	X16	Y16	Z16	X17	Y17	Z17	X18	Y18	Z18	X19	Y19	Z19	X20	Y20	Z20	X21	Y21	Z21	X22	Y22	Z22	X23	Y23	Z23	X24	Y24	Z24	X25	Y25	Z25	X26	Y26	Z26	X27	Y27	Z27	X28	Y28	Z28	X29	Y29	Z29	X30	Y30	Z30	X31	Y31	Z31	X32	Y32	Z32	X33	Y33	Z33	X34	Y34	Z34	X35	Y35	Z35	X36	Y36	Z36	X37	Y37	Z37	X38	Y38	Z38	X39	Y39	Z39	X40	Y40	Z40	X41	Y41	Z41	X42	Y42	Z42	X43	Y43	Z43	X44	Y44	Z44	X45	Y45	Z45	X46	Y46	Z46	X47	Y47	Z47	X48	Y48	Z48	X49	Y49	Z49	X50	Y50	Z50	X51	Y51	Z51	X52	Y52	Z52	X53	Y53	Z53	X54	Y54	Z54	X55	Y55	Z55	X56	Y56	Z56	X57	Y57	Z57	X58	Y58	Z58	X59	Y59	Z59

703	3.515	-641.89	920.34	354.25	-567.98	1561	-11.81	-554.34	1561.4	86.289	-598.15	764.58	368.42	-640.37	816.29	388.72	-684.49	1344.6	216.43	-347.68	80.713	-50.148	-701.46	1198.8	302.73	-579.18	549.65	-166.43	-502.75	347.31	-48.547	-575.15	482.51	-146.79	-676.41	1357.4	-141.24	-497.21	266.86	-118.11	-312.56	94.892	-53.782	-595.89	949.12	-153.36	-469.48	179.94	-62.216	-812.23	1096.3	-261.61	-723.55	1221.5	-225.83	-623.32	927.31	199.59	-800.05	443.47	164.24	-606.85	1318.3	40.636	-548.3	1197.7	50.81	-776.15	533.93	181.12	-850.8	863.15	-343.8	-794.72	967.94	-308.15	-823.31	1287.6	137.31	-848.03	21.596	135.81	-835.63	32.105	45.497	-824.52	809.23	-352.66	-1021.5	49.095	86.448	-602.92	628.79	-198.39	-845.99	259.11	143.35	-790.85	24.559	52.54	-961.22	76.211	130.21	-624.86	706.67	-226.04	-720.75	1537.1	-18.75	-837.45	972.67	-99.321	-862.58	970.72	33.013	-718.93	689.78	220.43	-787.1	321.68	82.323	-697.93	602.45	183.13	-840.74	236.61	88.979	-873.2	173.21	83.324	-489.92	263.05	-56.555	-767.18	1397.2	52.643	-769.68	1015.5	269.04	-723	1548.5	115.95	-365.98	56.294	-130.38	-725.02	1037.4	346.4	-940.7	84.356	45.868	-796.42	844.39	-296.38	-775.8	614.22	176.38	-555.28	653.03	-169.05	-488.95	73.568	-120.92	-474.63	83.451	-38.378	-825.93	1071.5	-0.61445	-611.58	817.78	319.83	-526.89	21.346	-73.47	-813.37	1051.5	-162.56
704	3.52	-638.02	920.26	353.45	-563.35	1560.6	-13.246	-549.78	1561	84.867	-594.28	764.58	367.82	-636.57	816.24	387.95	-679.85	1344.3	215.05	-345.66	77.494	-48.149	-697.25	1198.7	301.55	-571.66	549.69	-164.99	-498.49	346.11	-47.61	-569.16	482.1	-146.13	-671.35	1356.3	-142.66	-493.32	265.55	-117.06	-310.16	90.851	-51.319	-590.72	948.1	-153.79	-466.57	178.47	-60.867	-807.45	1095.2	-262.56	-718.57	1220.2	-226.99	-618.49	926.63	199.08	-796.4	443.09	164.24	-602	1317.7	39.299	-543.41	1197	49.625	-772.2	533.42	181.1	-846.73	862	-344.3	-790.33	966.67	-308.93	-818.67	1287.2	135.86	-848.06	21.581	135.8	-835.46	32.211	45.635	-820.64	807.97	-353.07	-1021.2	50.629	86.568	-596.01	628.46	-197.5	-843.93	259.18	143.5	-790.79	24.526	52.609	-960.65	77.147	130.4	-618.65	706.03	-225.53	-716.08	1536.4	-20.273	-832.34	971.9	-100.2	-857.6	970.1	32.154	-714.64	689.26	220.29	-784.39	321.11	82.554	-693.87	601.83	183.05	-839.07	234.89	89.53	-871.81	173.49	83.52	-486.35	261.75	-55.454	-762.43	1396.7	51.002	-765.68	1015.5	267.98	-718.44	1547.9	114.42	-363.9	53.706	-128.63	-721.12	1037.4	345.35	-940.04	85.225	46.082	-792.38	843.11	-296.88	-773.81	614.05	174.61	-548.7	653.26	-168.05	-486.69	72.529	-119.78	-472.73	81.9	-37.147	-821	1070.8	-1.4566	-607.63	817.7	319.14	-525.74	21.316	-72.793	-808.52	1050.5	-163.43
705	3.525	-634.2	920.22	352.62	-558.72	1560.2	-14.709	-545.22	1560.7	83.417	-590.5	764.6	367.2	-632.85	816.23	387.15	-675.2	1344.1	213.65	-343.76	74.197	-46.255	-693.05	1198.7	300.33	-564.26	549.78	-163.57	-494.3	344.97	-46.69	-563.34	481.72	-145.53	-666.27	1355.2	-144.11	-489.47	264.31	-116.05	-307.87	86.652	-48.948	-585.56	947.13	-154.28	-463.75	177.08	-59.579	-802.6	1094	-263.54	-713.53	1219	-228.18	-613.64	925.98	198.55	-792.66	442.75	164.23	-597.13	1317.1	37.931	-538.51	1196.3	48.408	-768.17	532.94	181.08	-842.56	860.81	-344.82	-785.86	965.38	-309.72	-814	1286.9	134.39	-848.08	21.56	135.8	-835.28	32.329	45.786	-816.67	806.67	-353.5	-1020.8	52.285	86.71	-589.09	628.23	-196.62	-841.79	259.32	143.68	-790.72	24.489	52.679	-960.02	78.159	130.62	-612.31	705.54	-224.98	-711.4	1535.8	-21.83	-827.22	971.16	-101.09	-852.61	969.5	31.282	-710.3	688.77	220.16	-781.59	320.58	82.804	-689.75	601.25	182.99	-837.26	233.28	90.028	-870.35	173.83	83.746	-482.85	260.51	-54.395	-757.67	1396.2	49.321	-761.69	1015.4	266.86	-713.87	1547.3	112.85	-361.99	51.126	-127.02	-717.27	1037.4	344.27	-939.32	86.166	46.328	-788.24	841.81	-297.38	-771.63	613.96	173.01	-542.09	653.5	-167.06	-484.54	71.596	-118.73	-470.94	80.41	-36.002	-816.05	1070.2	-2.286	-603.75	817.64	318.43	-524.73	21.433	-72.231	-803.62	1049.4	-164.35
706	3.53	-630.45	920.2	351.77	-554.07	1560	-16.196	-540.64	1560.5	81.942	-586.79	764.66	366.55	-629.21	816.24	386.32	-670.53	1344	212.24	-341.97	70.863	-44.49	-688.84	1198.6	299.05	-557.03	549.95	-162.18	-490.19	343.91	-45.79	-557.7	481.4	-144.99	-661.16	1354.1	-145.59	-485.65	263.18	-115.08	-305.68	82.345	-46.705	-580.39	946.2	-154.84	-461.01	175.77	-58.364	-797.66	1092.8	-264.56	-708.42	1217.7	-229.39	-608.76	925.37	197.98	-788.84	442.45	164.23	-592.24	1316.5	36.535	-533.57	1195.7	47.157	-764.06	532.51	181.06	-838.29	859.6	-345.36	-781.29	964.07	-310.54	-809.32	1286.6	132.92	-848.11	21.531	135.79	-835.07	32.46	45.951	-812.58	805.35	-353.94	-1020.3	54.074	86.878	-582.18	628.11	-195.76	-839.58	259.53	143.88	-790.65	24.448	52.749	-959.33	79.256	130.87	-605.87	705.2	-224.42	-706.69	1535.3	-23.417	-822.09	970.48	-101.99	-847.62	968.92	30.4	-705.89	688.34	220.04	-778.71	320.1	83.074	-685.56	600.73	182.94	-835.31	231.82	90.467	-868.81	174.25	84.007	-479.43	259.37	-53.382	-752.89	1395.8	47.603	-757.69	1015.5	265.67	-709.29	1546.8	111.25	-360.23	48.586	-125.58	-713.47	1037.5	343.14	-938.52	87.187	46.61	-784	840.5	-297.89	-769.2	613.96	171.6	-535.47	653.75	-166.09	-482.49	70.783	-117.79	-469.25	79.01	-34.949	-811.1	1069.7	-3.0981	-599.93	817.62	317.69	-523.85	21.688	-71.776	-798.67	1048.4	-165.29
707	3.535	-626.75	920.23	350.9	-549.4	1559.8	-17.704	-536.05	1560.3	80.442	-583.17	764.75	365.87	-625.65	816.3	385.46	-665.85	1343.9	210.84	-340.27	67.533	-42.875	-684.63	1198.6	297.75	-550	550.17	-160.85	-486.16	342.96	-44.916	-552.22	481.15	-144.53	-656.03	1353	-147.1	-481.85	262.17	-114.16	-303.59	77.987	-44.625	-575.22	945.34	-155.47	-458.34	174.57	-57.231	-792.64	1091.6	-265.61	-703.24	1216.4	-230.61	-603.86	924.81	197.39	-784.92	442.21	164.24	-587.34	1316	35.113	-528.62	1195.1	45.874	-759.86	532.12	181.04	-833.91	858.37	-345.9	-776.62	962.74	-311.37	-804.62	1286.5	131.43	-848.14	21.494	135.78	-834.84	32.603	46.131	-808.38	804.03	-354.38	-1019.8	56.006	87.075	-575.32	628.12	-194.95	-837.29	259.82	144.11	-790.58	24.403	52.819	-958.57	80.444	131.15	-599.32	705.03	-223.85	-701.98	1534.8	-25.031	-816.96	969.86	-102.9	-842.62	968.37	29.511	-701.42	687.97	219.91	-775.72	319.68	83.366	-681.3	600.28	182.89	-833.19	230.56	90.849	-867.19	174.74	84.307	-476.08	258.32	-52.422	-748.1	1395.4	45.854	-753.7	1015.5	264.42	-704.7	1546.3	109.63	-358.6	46.119	-124.31	-709.72	1037.6	341.98	-937.64	88.296	46.93	-779.65	839.17	-298.41	-766.46	614.02	170.42	-528.87	654.02	-165.14	-480.54	70.093	-116.96	-467.65	77.72	-33.992	-806.13	1069.2	-3.8892	-596.18	817.63	316.92	-523.07	22.062	-71.416	-793.66	1047.3	-166.27
708	3.54	-623.12	920.29	350	-544.72	1559.6	-19.233	-531.44	1560.2	78.922	-579.64	764.87	365.17	-622.17	816.39	384.55	-661.15	1343.9	209.43	-338.67	64.244	-41.424	-680.42	1198.6	296.4	-543.23	550.47	-159.62	-482.2	342.11	-44.073	-546.89	480.99	-144.14	-650.88	1351.9	-148.62	-478.07	261.29	-113.28	-301.62	73.633	-42.73	-570.06	944.55	-156.15	-455.75	173.48	-56.187	-787.52	1090.4	-266.68	-697.99	1215.1	-231.85	-598.93	924.3	196.75	-780.9	442.02	164.26	-582.42	1315.6	33.671	-523.65	1194.6	44.56	-755.58	531.78	181.01	-829.41	857.14	-346.46	-771.84	961.4	-312.21	-799.9	1286.3	129.94	-848.17	21.447	135.78	-834.6	32.757	46.325	-804.06	802.7	-354.83	-1019.1	58.09	87.3	-568.54	628.26	-194.19	-834.9	260.18	144.37	-790.5	24.352	52.889	-957.72	81.731	131.47	-592.69	705.05	-223.28	-697.24	1534.4	-26.667	-811.82	969.32	-103.82	-837.64	967.87	28.619	-696.88	687.66	219.78	-772.63	319.34	83.682	-676.97	599.9	182.85	-830.88	229.54	91.176	-865.47	175.31	84.65	-472.79	257.39	-51.52	-743.3	1395.2	44.08	-749.7	1015.6	263.09	-700.1	1546	107.98	-357.12	43.753	-123.24	-706.02	1037.7	340.77	-936.67	89.498	47.291	-775.2	837.85	-298.94	-763.39	614.14	169.49	-522.31	654.31	-164.23	-478.69	69.524	-116.24	-466.13	76.556	-33.133	-801.17	1068.8	-4.6559	-592.5	817.67	316.12	-522.37	22.528	-71.137	-788.58	1046.2	-167.27
709	3.545	-619.55	920.4	349.07	-540.02	1559.6	-20.779	-526.82	1560.2	77.384	-576.21	765.03	364.44	-618.78	816.53	383.61	-656.42	1343.9	208.03	-337.17	61.032	-40.142	-676.21	1198.6	295.03	-536.72	550.83	-158.52	-478.31	341.37	-43.273	-541.68	480.94	-143.84	-645.71	1350.9	-150.15	-474.3	260.53	-112.46	-299.77	69.337	-41.034	-564.9	943.84	-156.88	-453.24	172.51	-55.238	-782.31	1089.2	-267.77	-692.67	1213.8	-233.09	-593.99	923.85	196.07	-776.78	441.89	164.29	-577.5	1315.2	32.214	-518.67	1194.1	43.214	-751.21	531.51	180.99	-824.8	855.91	-347.03	-766.95	960.07	-313.06	-795.16	1286.3	128.45	-848.21	21.39	135.78	-834.33	32.921	46.533	-799.62	801.37	-355.29	-1018.4	60.338	87.556	-561.86	628.55	-193.49	-832.4	260.64	144.67	-790.43	24.296	52.958	-956.79	83.124	131.83	-585.99	705.27	-222.73	-692.49	1534	-28.321	-806.68	968.86	-104.73	-832.67	967.43	27.731	-692.26	687.42	219.64	-769.42	319.07	84.021	-672.55	599.6	182.81	-828.39	228.8	91.451	-863.65	175.97	85.038	-469.57	256.56	-50.684	-738.48	1395	42.288	-745.7	1015.8	261.69	-695.48	1545.7	106.32	-355.77	41.515	-122.37	-702.35	1037.9	339.52	-935.6	90.801	47.695	-770.64	836.54	-299.46	-759.92	614.32	168.82	-515.82	654.61	-163.37	-476.94	69.067	-115.62	-464.7	75.524	-32.373	-796.2	1068.5	-5.3959	-588.9	817.75	315.29	-521.73	23.057	-70.926	-783.45	1045.2	-168.29
710	3.55	-616.04	920.55	348.1	-535.31	1559.6	-22.34	-522.18	1560.3	75.83	-572.87	765.23	363.67	-615.48	816.71	382.62	-651.68	1344.1	206.64	-335.79	57.93	-39.028	-672	1198.7	293.63	-530.51	551.26	-157.6	-474.49	340.74	-42.525	-536.56	481.01	-143.63	-640.52	1349.9	-151.69	-470.56	259.89	-111.69	-298.05	65.149	-39.542	-559.75	943.23	-157.67	-450.83	171.66	-54.388	-777	1088	-268.88	-687.29	1212.5	-234.33	-589.03	923.48	195.34	-772.56	441.84	164.34	-572.56	1314.9	30.746	-513.67	1193.7	41.837	-746.74	531.31	180.97	-820.07	854.69	-347.61	-761.95	958.74	-313.91	-790.41	1286.4	126.97	-848.26	21.322	135.77	-834.05	33.095	46.754	-795.06	800.06	-355.75	-1017.6	62.757	87.841	-555.32	628.98	-192.87	-829.79	261.18	145.01	-790.36	24.234	53.028	-955.77	84.628	132.22	-579.25	705.69	-222.21	-687.72	1533.8	-29.988	-801.55	968.48	-105.64	-827.71	967.04	26.851	-687.56	687.26	219.5	-766.09	318.89	84.387	-668.04	599.38	182.77	-825.68	228.37	91.683	-861.71	176.7	85.473	-466.42	255.85	-49.92	-733.64	1394.8	40.488	-741.69	1016	260.23	-690.84	1545.5	104.64	-354.56	39.425	-121.7	-698.71	1038.2	338.23	-934.41	92.21	48.144	-765.96	835.24	-299.99	-756.03	614.54	168.44	-509.42	654.93	-162.57	-475.31	68.71	-115.1	-463.37	74.628	-31.709	-791.23	1068.3	-6.1083	-585.38	817.87	314.42	-521.15	23.621	-70.771	-778.24	1044.1	-169.32
711	3.555	-612.58	920.75	347.1	-530.59	1559.7	-23.914	-517.53	1560.5	74.263	-569.63	765.47	362.87	-612.26	816.94	381.6	-646.9	1344.3	205.26	-334.53	54.966	-38.073	-667.79	1198.9	292.21	-524.59	551.75	-156.88	-470.75	340.21	-41.838	-531.49	481.18	-143.51	-635.31	1349	-153.23	-466.86	259.35	-111	-296.48	61.116	-38.249	-554.61	942.72	-158.49	-448.51	170.9	-53.638	-771.59	1086.8	-270	-681.84	1211.3	-235.56	-584.06	923.19	194.56	-768.22	441.87	164.43	-567.62	1314.8	29.273	-508.66	1193.5	40.429	-742.18	531.19	180.95	-815.22	853.5	-348.19	-756.83	957.44	-314.75	-785.65	1286.5	125.51	-848.32	21.243	135.76	-833.74	33.277	46.989	-790.37	798.78	-356.21	-1016.6	65.356	88.157	-548.92	629.55	-192.34	-827.04	261.81	145.39	-790.3	24.164	53.099	-954.63	86.248	132.66	-572.49	706.3	-221.72	-682.95	1533.6	-31.665	-796.41	968.2	-106.53	-822.76	966.71	25.989	-682.78	687.17	219.34	-762.63	318.78	84.779	-663.43	599.26	182.72	-822.75	228.27	91.879	-859.64	177.53	85.957	-463.34	255.23	-49.233	-728.78	1394.8	38.69	-737.68	1016.4	258.71	-686.19	1545.4	102.94	-353.47	37.499	-121.2	-695.11	1038.5	336.91	-933.1	93.73	48.642	-761.17	833.97	-300.51	-751.68	614.79	168.34	-503.14	655.27	-161.84	-473.82	68.442	-114.67	-462.15	73.866	-31.138	-786.27	1068.1	-6.7936	-581.94	818.02	313.51	-520.62	24.195	-70.661	-772.96	1043	-170.37
